# xmcd CD database file
#
# Track frame offsets:
#	150
#	17229
#	39897
#	62277
#	78936
#	96394
#	114970
#	129575
#	143499
#	169194
#	186195
#	203134
#	218487
#	235761
#	253978
#	270316
#
# Disc length: 3867 seconds
#
# Revision: 0
# Processed by: cddbd v1.5.2PL0 Copyright (c) Steve Scherf et al.
# Submitted via: cdripper 1,0,33,916
#
DISCID=cf0f1910
DTITLE=The Gibson Brothers - The Best of Gibson Brothers
DYEAR=2006
DGENRE=Salsa
TTITLE0=Cuba
TTITLE1=Que Sera Mi Vida (If You Should Go)
TTITLE2=Better Do It Salsa
TTITLE3=Latin America
TTITLE4=Non Stop Dance
TTITLE5=Ooh! What A Life
TTITLE6=Mariana
TTITLE7=My Heart Is Beating Wild
TTITLE8=Come To America
TTITLE9=Heaven
TTITLE10=Are You Ready
TTITLE11=Silver Nights
TTITLE12=Emily
TTITLE13=I Left My Heart In Jamaica
TTITLE14=Party Tonight
TTITLE15=Caribbean Concerto
EXTD=YEAR: 2006
EXTT0=
EXTT1=
EXTT2=
EXTT3=
EXTT4=
EXTT5=
EXTT6=
EXTT7=
EXTT8=
EXTT9=
EXTT10=
EXTT11=
EXTT12=
EXTT13=
EXTT14=
EXTT15=
PLAYORDER=
